<svg version="1.0" xmlns="http://www.w3.org/2000/svg"
 width="150pt" height="150.000000pt" viewBox="0 0 973.000000 325.000000"
 preserveAspectRatio="xMidYMid meet">

<g transform="translate(0.000000,325.000000) scale(0.100000,-0.100000)"
fill="#000000" stroke="none">
<path d="M3877 2686 c-67 -24 -113 -62 -138 -113 -23 -46 -24 -57 -27 -323 -2
-179 1 -290 8 -320 17 -67 51 -112 111 -145 49 -27 62 -30 149 -30 87 0 100 3
149 30 62 34 105 92 115 155 8 50 -7 80 -38 80 -29 0 -42 -15 -50 -60 -15 -85
-72 -130 -163 -130 -110 0 -172 45 -192 140 -13 59 -14 444 -2 509 17 86 73
133 165 139 90 6 149 -21 176 -80 11 -24 20 -53 20 -65 0 -45 72 -55 83 -11
13 46 -13 119 -58 164 -68 68 -208 95 -308 60z"/>
<path d="M4560 2691 c-75 -23 -138 -80 -161 -148 -11 -28 -14 -108 -14 -318 0
-307 3 -330 58 -391 44 -51 98 -75 181 -81 145 -11 247 47 280 158 23 76 23
552 0 628 -20 70 -75 125 -145 145 -55 17 -156 20 -199 7z m197 -97 c71 -53
83 -107 83 -369 0 -262 -12 -316 -84 -369 -22 -17 -42 -21 -106 -21 -93 0
-122 16 -157 85 -22 43 -23 54 -23 302 0 210 3 266 15 295 33 79 78 105 177
100 49 -2 75 -8 95 -23z"/>
<path d="M5115 2688 c-3 -7 -4 -218 -3 -468 l3 -455 35 0 35 0 5 365 5 365
174 -340 c96 -187 183 -352 193 -367 21 -30 58 -37 77 -14 8 9 10 140 9 467
l-3 454 -31 3 c-17 2 -36 -3 -42 -11 -8 -10 -13 -118 -14 -363 l-3 -349 -173
343 c-95 189 -182 352 -193 363 -21 21 -67 26 -74 7z"/>
<path d="M5972 2685 c-100 -31 -151 -103 -152 -213 0 -133 40 -178 224 -252
154 -61 196 -108 196 -218 0 -102 -58 -163 -163 -170 -85 -5 -140 11 -192 59
-49 45 -71 49 -86 15 -32 -69 112 -156 256 -156 118 0 195 38 242 118 25 42
28 56 28 142 0 78 -4 102 -22 135 -39 73 -94 110 -251 170 -87 33 -127 63
-142 111 -24 72 4 140 70 174 54 27 168 27 229 0 58 -27 79 -25 93 6 11 24 9
29 -14 49 -50 43 -223 59 -316 30z"/>
<path d="M6487 2694 c-4 -4 -7 -174 -7 -378 1 -398 3 -413 54 -480 44 -58 105
-81 216 -81 87 0 100 3 149 30 60 33 95 78 111 145 7 29 10 169 8 405 l-3 360
-31 3 c-17 2 -36 -3 -42 -11 -8 -9 -12 -127 -14 -384 -3 -357 -4 -373 -24
-399 -33 -45 -66 -64 -121 -70 -69 -9 -116 2 -153 33 -65 54 -65 51 -70 458
l-5 370 -30 3 c-17 2 -34 0 -38 -4z"/>
<path d="M7222 2688 c-17 -17 -17 -899 0 -916 16 -16 53 -15 67 1 7 9 12 128
13 372 l3 358 103 -199 c57 -109 110 -205 117 -212 25 -27 50 7 155 208 l105
200 3 -356 c1 -243 6 -362 13 -371 14 -16 51 -17 67 -1 17 17 17 899 0 916
-19 19 -53 14 -75 -10 -12 -13 -71 -121 -133 -240 -61 -120 -113 -218 -115
-218 -2 0 -54 98 -115 218 -62 119 -122 227 -133 240 -22 24 -56 29 -75 10z"/>
<path d="M8082 2688 c-17 -17 -17 -899 0 -916 9 -9 82 -12 265 -12 l253 0 0
28 c0 50 -8 52 -232 52 l-208 0 0 175 0 175 103 0 c56 0 108 4 115 9 8 5 12
21 10 37 l-3 29 -112 3 -113 3 0 174 0 175 218 2 217 3 0 35 0 35 -250 3
c-187 2 -254 -1 -263 -10z"/>
<path d="M8735 2688 c-3 -7 -4 -218 -3 -468 l3 -455 35 0 35 0 5 210 5 210 80
3 80 2 110 -212 c90 -175 114 -214 133 -216 26 -4 52 13 52 34 0 8 -45 101
-100 206 -55 105 -99 192 -97 193 1 1 25 10 52 20 101 37 154 135 142 262 -11
115 -74 190 -178 212 -73 16 -348 15 -354 -1z m372 -94 c15 -11 39 -36 51 -55
21 -29 23 -44 20 -106 -4 -81 -22 -114 -79 -148 -29 -17 -52 -20 -159 -20
l-125 0 -3 178 -2 179 134 -4 c118 -3 138 -6 163 -24z"/>
<path d="M582 2664 c-37 -19 -59 -38 -77 -69 l-25 -42 2 -941 3 -940 30 -38
c17 -20 46 -45 65 -55 33 -18 84 -19 1193 -19 1133 0 1159 0 1196 20 47 23 77
60 91 109 8 24 10 336 8 958 l-3 921 -31 39 c-16 21 -50 48 -74 61 l-44 22
-1141 0 -1141 0 -52 -26z m866 -418 c109 -50 182 -155 182 -261 0 -56 -19 -79
-65 -79 -44 0 -65 22 -65 68 -1 40 -31 105 -61 133 -42 38 -93 53 -183 53 -72
0 -91 -4 -137 -28 -42 -22 -58 -38 -79 -77 l-25 -49 -3 -363 c-2 -228 1 -378
8 -402 27 -100 96 -150 218 -158 158 -11 240 47 258 182 8 52 32 78 76 78 46
0 61 -26 55 -98 -5 -74 -31 -127 -89 -181 -51 -50 -104 -78 -176 -93 -177 -37
-354 23 -428 146 -52 87 -56 129 -52 538 l3 370 28 60 c33 70 65 107 125 142
74 44 118 53 237 50 96 -2 118 -6 173 -31z m1212 15 c16 -30 12 -59 -10 -81
-19 -19 -33 -20 -310 -20 l-290 0 0 -235 0 -235 145 0 c132 0 147 -2 165 -20
27 -27 26 -65 -2 -84 -18 -13 -52 -16 -165 -16 l-143 0 0 -240 0 -240 294 0
c293 0 295 0 310 -22 21 -29 20 -57 -1 -80 -15 -17 -39 -18 -353 -18 -275 0
-340 3 -356 14 -18 14 -19 32 -19 639 0 514 2 627 14 640 12 15 50 17 362 17
334 0 349 -1 359 -19z"/>
<path d="M3732 1492 c-10 -7 -12 -107 -10 -468 l3 -459 260 0 260 0 0 30 0 30
-220 5 -220 5 -3 177 -2 177 117 3 c115 3 118 4 121 26 7 45 -12 52 -129 52
l-109 0 0 175 0 175 214 0 c230 0 241 3 234 52 l-3 23 -250 2 c-137 2 -256 -1
-263 -5z"/>
<path d="M4381 1482 c-15 -28 -15 -875 -1 -903 10 -18 23 -19 178 -19 146 0
173 3 212 21 56 25 86 53 113 104 21 38 22 56 25 315 2 179 -1 290 -8 320 -17
67 -51 112 -111 145 -53 29 -57 30 -226 33 -164 4 -172 3 -182 -16z m331 -74
c55 -16 94 -65 108 -133 8 -38 11 -136 8 -284 -3 -220 -4 -227 -28 -270 -38
-67 -77 -83 -221 -89 l-119 -5 0 397 0 396 106 0 c59 0 124 -5 146 -12z"/>
<path d="M5252 1486 c-59 -19 -108 -59 -135 -109 -21 -40 -22 -54 -25 -332 -3
-318 0 -349 50 -409 52 -64 98 -81 213 -81 115 0 161 17 213 81 44 54 53 100
50 264 l-3 145 -132 3 c-125 2 -133 1 -143 -18 -21 -39 2 -50 107 -50 l95 0
-4 -112 c-2 -90 -7 -121 -24 -153 -29 -56 -83 -85 -159 -85 -76 0 -130 29
-159 85 -20 38 -21 56 -21 310 0 253 1 273 21 310 39 78 157 108 251 65 48
-21 79 -64 88 -121 7 -41 29 -55 65 -44 16 5 20 15 20 51 0 82 -52 155 -135
190 -54 22 -179 28 -233 10z"/>
<path d="M5800 1481 c-15 -30 -14 -893 2 -909 9 -9 82 -12 266 -12 l253 0 -3
33 -3 32 -217 3 -218 2 0 180 0 179 113 3 112 3 3 29 c2 16 -2 32 -10 37 -7 5
-59 9 -115 9 l-103 0 0 175 0 175 218 2 217 3 0 35 0 35 -252 3 c-241 2 -253
1 -263 -17z"/>
</g>
</svg>
